<?xml version="1.0" encoding="utf-8"?>
<!-- Generator: Adobe Illustrator 20.1.0, SVG Export Plug-In . SVG Version: 6.00 Build 0)  -->
<svg version="1.1" id="Layer_1" xmlns="http://www.w3.org/2000/svg" xmlns:xlink="http://www.w3.org/1999/xlink" x="0px" y="0px"
	 viewBox="0 0 32 32" style="enable-background:new 0 0 32 32;" xml:space="preserve">
<style type="text/css">
	.st0{fill:none;stroke:#FFFFFF;stroke-width:2;stroke-linecap:round;stroke-linejoin:round;stroke-miterlimit:10;}
	.st1{fill:#7c7c7c;}
</style>
<g>
	<polyline class="st0" points="649,138 675,138 675,156 661,156 	"/>
	<polyline class="st0" points="653,156 649,156 649,142 	"/>
	<polyline class="st0" points="661,156 653,162 653,156 	"/>
</g>
<g>
	<g>
		<path class="st1" d="M16,27c-0.2,0-0.5-0.1-0.6-0.2c-0.2-0.2-5.9-5.1-8.3-10.4c-0.2-0.5,0-1.1,0.5-1.3c0.5-0.2,1.1,0,1.3,0.5
			c1.7,3.9,5.6,7.7,7.1,9.1c2.7-2.6,8-8.6,8-12.4C24,7.7,20.4,4,16,4s-8,3.7-8,8.2c0,0.6-0.4,1-1,1s-1-0.4-1-1C6,6.6,10.5,2,16,2
			s10,4.6,10,10.2c0,5.9-8.9,14.2-9.3,14.5C16.5,26.9,16.2,27,16,27z"/>
	</g>
	<g>
		<path class="st1" d="M16,16c-2.2,0-4-1.8-4-4s1.8-4,4-4s4,1.8,4,4S18.2,16,16,16z M16,10c-1.1,0-2,0.9-2,2s0.9,2,2,2s2-0.9,2-2
			S17.1,10,16,10z"/>
	</g>
	<g>
		<path class="st1" d="M29,30H3c-0.4,0-0.7-0.2-0.9-0.5s-0.2-0.7,0-1l4-7C6.4,21,7,20.9,7.5,21.1C8,21.4,8.1,22,7.9,22.5L4.7,28
			h22.6l-3.1-5.5c-0.3-0.5-0.1-1.1,0.4-1.4c0.5-0.3,1.1-0.1,1.4,0.4l4,7c0.2,0.3,0.2,0.7,0,1C29.7,29.8,29.4,30,29,30z"/>
	</g>
</g>
</svg>
